<?xml version="1.0" encoding="utf-8"?>
<svg viewBox="0 0 1600 1600" xmlns="http://www.w3.org/2000/svg">
  <path transform="matrix(1, 0, 0, 1, 659, 580)" d="M -228.84 375.159 L 3 0 C 4.14 1.4 463.183 899.502 463.14 901.172 C 429.14 901.355 213.247 893.324 209.687 893.302 C 208.667 893.325 -118.432 307.144 -120.172 303.894 C -122.952 305.184 -228.84 375.159 -228.84 375.159 Z" style="fill-rule: evenodd; paint-order: fill; fill: rgb(61, 46, 79);"/>
  <path transform="matrix(1, 0, 0, 1, 343.99999999999994, 42.799999237060554)" d="M -303.578 4.277 C -295.668 -2.493 25.54 -0.011 26.95 -0.008 C 29.58 0.263 183.744 252 182.814 257.19 C 179.944 263.58 -84.653 656.833 -84.963 651.963 C -85.047 650.003 -40.076 475.898 -37.851 473.678 C -36.791 464.648 -309.953 11.477 -303.578 4.277 Z" style="fill: rgb(34, 14, 36);"/>
  <path d="M 879.215 922.462 C 879.215 922.462 1152.906 1452.536 1160.096 1466.685 C 1163.691 1473.759 1283.454 1470.484 1283.441 1470.46 C 1283.412 1470.406 1081.511 1080.135 1081.431 1080.015 C 1075.228 1070.678 1479.206 1101.941 1457.518 656.103 C 1441.778 332.543 1136.684 264.254 1005.167 265.096 C 985.342 265.223 799.208 261.38 747.342 260.538 C 695.48 259.697 643.618 258.865 591.756 258.014 L 589.285 257.974 L 591.033 259.721 L 591.034 259.722 L 590.445 259.133 L 590.917 258.448 C 548.588 319.907 46.13 1075.922 45.667 1084.451 C 45.703 1084.805 45.873 1085.316 46.102 1085.56 C 46.291 1085.761 46.614 1085.982 46.907 1086.129 C 47.443 1086.397 48.255 1086.655 49.208 1086.874 C 51.078 1087.302 53.833 1087.683 57.287 1088.015 C 64.176 1088.675 74.043 1089.165 85.879 1089.519 C 109.544 1090.225 141.181 1090.39 172.961 1090.292 C 236.521 1090.098 300.703 1088.858 303.001 1088.812 C 303.45 1088.594 304.278 1087.755 305.053 1086.562 C 305.823 1085.376 306.943 1083.616 308.387 1081.326 C 311.273 1076.748 315.463 1070.034 320.768 1061.493 C 331.378 1044.41 346.454 1020.009 364.505 990.73 C 400.607 932.171 448.611 854.096 496.588 776.022 C 544.565 697.948 592.516 619.875 628.512 561.32 C 646.511 532.043 661.52 507.646 672.05 490.567 C 677.315 482.028 681.459 475.32 684.298 470.746 C 685.717 468.46 686.808 466.709 687.55 465.528 C 687.921 464.939 688.202 464.496 688.393 464.199 C 688.488 464.052 688.556 463.948 688.603 463.879 C 688.642 463.821 688.26 464.002 687.866 464.204 C 852.887 463.157 971.094 463.271 1007.629 463.978 C 1025.885 464.331 1236.072 469.811 1243.452 667.176 C 1250.832 864.541 1117.252 913.605 1024.065 918.113" style="paint-order: stroke; fill: rgb(76, 95, 122);" transform="matrix(0.9998480081558228, 0.01745300367474556, -0.01745300367474556, 0.9998480081558228, 14.78039264678955, -11.18894100189209)"/>
  <path transform="matrix(1, 0, 0, 1, 311.99999999999994, 986)" d="m0 0 1 2h2v3h-2v2h2v4h-2c-0.33 0.99-0.66 1.98-1 3-2.57-4.42-1.72-7.51-0.508-12.2 0.168-0.592 0.335-1.18 0.508-1.79z" fill="#06D159"/>
  <g>
    <path d="M 884.946 923.123 C 885.081 922.542 1174.256 1477.242 1171.843 1474.01" style="fill: rgb(76, 95, 122);" transform="matrix(0.999848, 0.017453, -0.017453, 0.999848, 15.246464, -11.608618)"/>
    <path d="M 1004.506 268.482 C 984.67 269.065 798.512 264.766 746.649 263.924 C 694.787 263.083 642.925 262.251 591.063 261.4 L 591.064 261.401 C 548.738 322.853 46.368 1078.608 45.988 1086.883 C 45.609 1095.158 297.707 1090.291 302.303 1090.198 C 303.787 1090.168 686.541 465.594 687.183 465.59" style="fill: rgb(76, 95, 122);" transform="matrix(0.999848, 0.017453, -0.017453, 0.999848, 15.246464, -11.608618)"/>
  </g>
  <path d="M 885.222 921.036 C 885.222 921.036 885.625 921.822 886.401 923.336 C 885.596 921.775 885.178 920.965 885.178 920.965 C 885.178 920.965 885.645 920.773 885.222 921.036 Z" style="fill: none;" transform="matrix(0.9998480081558228, 0.01745300367474556, -0.01745300367474556, 0.9998480081558228, 14.78039264678955, -11.18894100189209)"/>
  <path d="M 47.166 1084.507 C 47.166 1084.507 47.166 1084.508 47.166 1084.509 C 47.168 1084.509 47.167 1084.508 47.166 1084.507 Z" style="fill: none;" transform="matrix(0.9998480081558228, 0.01745300367474556, -0.01745300367474556, 0.9998480081558228, 14.78039264678955, -11.18894100189209)"/>
  <path d="M 1290.728 1471.107 C 1290.728 1471.107 1290.728 1471.107 1290.728 1471.107 C 1290.728 1471.107 1290.728 1471.107 1290.728 1471.107 Z" style="fill: none;" transform="matrix(0.9998480081558228, 0.01745300367474556, -0.01745300367474556, 0.9998480081558228, 14.78039264678955, -11.18894100189209)"/>
  <path d="M 1290.387 1471.066 C 1290.604 1471.088 1290.72 1471.102 1290.728 1471.107 C 1290.725 1471.105 1290.709 1471.097 1290.697 1471.091 C 1290.678 1471.083 1290.551 1471.063 1290.444 1471.051 C 1290.43 1471.053 1290.41 1471.059 1290.387 1471.066 Z" style="fill: none;" transform="matrix(0.9998480081558228, 0.01745300367474556, -0.01745300367474556, 0.9998480081558228, 14.78039264678955, -11.18894100189209)"/>
  <path d="M 996.835 1139.074 C 1071.445 1284.94 1157.889 1454.215 1168.808 1476.781 C 1168.748 1476.384 1168.609 1476.727 1168.825 1475.64 C 1169.041 1474.551 1169.876 1473.525 1171.086 1472.722 C 1173.448 1471.154 1177.625 1470.001 1182.944 1469.193 C 1193.554 1467.579 1209.053 1467.243 1224.974 1467.513 C 1252.501 1467.979 1281.466 1470.265 1288.905 1470.928 C 1288.659 1470.712 1288.375 1470.455 1288.055 1470.153 C 1286.566 1468.749 1284.215 1466.307 1280.825 1462.207 C 1274.061 1454.025 1263.09 1439.161 1246.331 1412.499 C 1214.291 1361.527 1161.036 1267.35 1075.366 1094.012 C 1075.049 1094.02 1074.797 1094.026 1074.797 1094.026 C 1074.797 1094.026 1074.771 1093.026 1074.771 1093.026 C 1074.771 1093.026 1074.81 1093.025 1074.877 1093.024 C 1071.118 1085.415 1067.296 1077.654 1063.411 1069.737 L 1064.309 1069.297 C 1068.264 1077.356 1072.154 1085.255 1075.979 1092.996 C 1076.107 1092.993 1076.227 1092.99 1076.327 1092.988 C 1076.845 1092.974 1077.363 1092.96 1077.879 1092.944 C 1078.913 1092.914 1079.944 1092.88 1080.974 1092.844 C 1083.033 1092.771 1085.082 1092.685 1087.123 1092.587 C 1091.207 1092.391 1095.254 1092.147 1099.269 1091.853 C 1107.3 1091.266 1115.187 1090.487 1122.945 1089.519 C 1138.458 1087.584 1153.412 1084.903 1167.833 1081.522 C 1196.673 1074.76 1223.302 1065.216 1247.777 1053.279 C 1296.724 1029.406 1336.91 996.034 1368.456 956.34 C 1431.552 876.951 1459.879 772.516 1453.741 668.889 C 1447.602 565.26 1407.008 462.64 1332.148 386.894 C 1257.284 311.143 1148.288 262.368 1005.198 266.596 C 985.349 267.179 799.179 262.88 747.318 262.038 C 695.868 261.204 644.418 260.378 592.967 259.534 L 592.389 258.956 L 592.153 259.299 C 592.103 259.371 592.053 259.444 592.002 259.518 L 592.967 259.534 C 592.645 259.529 592.323 259.524 592.002 259.518 C 548.659 322.509 48.166 1075.385 47.167 1084.503 C 47.172 1084.508 47.18 1084.517 47.196 1084.533 C 47.274 1084.617 47.376 1084.686 47.579 1084.788 C 48.01 1085.004 48.65 1085.207 49.543 1085.412 C 51.349 1085.826 54.007 1086.193 57.43 1086.521 C 64.285 1087.179 74.103 1087.666 85.924 1088.019 C 109.57 1088.725 141.183 1088.889 172.956 1088.793 C 236.504 1088.599 299.927 1087.373 302.925 1087.313 C 302.907 1087.226 303.03 1086.923 303.794 1085.745 C 304.561 1084.565 305.676 1082.813 307.118 1080.526 C 310.002 1075.951 314.189 1069.241 319.494 1060.701 C 330.103 1043.621 345.178 1019.221 363.229 989.943 C 399.33 931.385 447.333 853.31 495.31 775.236 C 543.287 697.163 591.238 619.09 627.235 560.535 C 645.233 531.257 660.243 506.859 670.773 489.78 C 676.038 481.241 680.184 474.53 683.023 469.955 C 684.443 467.668 685.537 465.913 686.28 464.73 C 686.652 464.138 686.938 463.688 687.133 463.386 C 687.231 463.234 687.308 463.116 687.361 463.037 C 687.419 462.953 687.653 462.805 687.857 462.704 C 852.884 461.657 930.607 460.962 967.994 460.571 C 986.688 460.376 995.298 460.257 999.695 460.208 C 1004.124 460.158 1004.322 460.182 1006.147 460.266 C 1090.636 464.203 1149.64 496.826 1186.27 543.049 C 1222.905 589.279 1237.288 649.223 1232.726 707.631 C 1228.163 766.039 1204.645 823.113 1165.582 863.635 C 1126.516 904.16 1071.743 928.227 1004.854 920.77 L 1004.966 919.776 C 1071.598 927.272 1125.927 903.329 1164.862 862.941 C 1203.798 822.551 1227.178 765.808 1231.729 707.553 C 1236.279 649.299 1221.991 589.735 1185.486 543.67 C 1148.976 497.598 1090.371 465.139 1006.101 461.264 C 1004.242 461.178 1004.072 461.159 999.706 461.208 C 995.31 461.257 986.7 461.376 968.005 461.571 C 930.636 461.962 852.972 462.656 688.12 463.702 C 688.08 463.764 688.031 463.838 687.973 463.928 C 687.78 464.227 687.498 464.672 687.127 465.262 C 686.384 466.443 685.292 468.196 683.873 470.483 C 681.034 475.057 676.889 481.766 671.624 490.305 C 661.094 507.383 646.085 531.781 628.086 561.058 C 592.09 619.613 544.139 697.686 496.162 775.76 C 448.185 853.834 400.182 931.909 364.08 990.467 C 346.029 1019.747 330.953 1044.147 320.343 1061.229 C 315.038 1069.77 310.849 1076.482 307.964 1081.059 C 306.521 1083.348 305.402 1085.105 304.633 1086.29 C 303.862 1087.478 303.239 1088.202 302.991 1088.312 C 300.693 1088.358 236.515 1089.598 172.959 1089.792 C 141.182 1089.889 109.553 1089.725 85.894 1089.019 C 74.063 1088.666 64.212 1088.177 57.334 1087.517 C 53.891 1087.186 51.168 1086.81 49.32 1086.386 C 48.387 1086.172 47.632 1085.933 47.131 1085.682 C 46.868 1085.55 46.619 1085.38 46.467 1085.218 C 46.295 1085.034 46.182 1084.716 46.167 1084.474 C 46.588 1076.072 549.002 320.187 591.329 258.731 L 591.093 259.074 L 590.513 258.494 L 591.748 258.514 C 643.61 259.365 695.472 260.197 747.334 261.038 C 799.199 261.88 985.345 266.179 1005.168 265.596 C 1148.477 261.411 1257.867 310.311 1332.86 386.191 C 1407.857 462.077 1448.592 565.045 1454.739 668.83 C 1460.887 772.616 1432.458 877.419 1369.239 956.963 C 1337.629 996.736 1297.269 1030.253 1248.215 1054.177 C 1223.691 1066.139 1196.956 1075.72 1168.061 1082.495 C 1153.615 1085.883 1138.609 1088.573 1123.068 1090.512 C 1115.298 1091.481 1107.385 1092.263 1099.342 1092.851 C 1095.32 1093.144 1091.261 1093.39 1087.171 1093.586 C 1085.126 1093.684 1083.071 1093.77 1081.009 1093.843 C 1079.978 1093.88 1078.944 1093.913 1077.909 1093.944 C 1077.429 1093.958 1076.948 1093.971 1076.467 1093.984 C 1162.003 1267.031 1215.175 1361.055 1247.178 1411.967 C 1263.917 1438.597 1274.849 1453.409 1281.596 1461.57 C 1284.962 1465.641 1287.269 1468.038 1288.741 1469.425 C 1289.47 1470.113 1289.98 1470.54 1290.315 1470.801 C 1290.477 1470.929 1290.59 1471.01 1290.666 1471.062 C 1290.701 1471.087 1290.724 1471.102 1290.741 1471.113 C 1290.748 1471.117 1290.752 1471.12 1290.756 1471.122 C 1290.758 1471.124 1290.761 1471.126 1290.764 1471.128 C 1290.768 1471.13 1290.797 1471.15 1290.82 1471.17 C 1290.834 1471.182 1290.877 1471.23 1290.906 1471.265 C 1290.932 1471.315 1290.973 1471.493 1290.988 1471.621 C 1290.952 1471.718 1290.845 1471.889 1290.774 1471.962 C 1290.706 1471.994 1290.591 1472.036 1290.543 1472.046 C 1290.436 1472.033 1290.309 1472.013 1290.29 1472.005 C 1290.278 1472 1290.262 1471.991 1290.258 1471.989 C 1290.277 1472 1256.761 1469.052 1224.957 1468.513 C 1209.055 1468.243 1193.641 1468.577 1183.094 1470.181 C 1177.834 1470.981 1173.871 1472.073 1171.639 1473.555 C 1170.552 1474.276 1169.976 1474.976 1169.805 1475.834 C 1169.635 1476.694 1169.881 1477.575 1170.742 1478.702 C 1170.735 1478.694 1170.697 1478.649 1170.664 1478.623 C 1170.621 1478.588 1170.434 1478.505 1170.306 1478.517 C 1170.201 1478.528 1170.007 1478.642 1169.948 1478.724 C 1169.907 1478.783 1169.867 1478.899 1169.861 1478.945 C 1169.848 1479.04 1169.878 1479.152 1169.877 1479.149 C 1169.865 1479.118 1169.839 1479.057 1169.79 1478.951 C 1169.69 1478.734 1169.523 1478.384 1169.287 1477.901 C 1168.816 1476.934 1168.08 1475.45 1167.095 1473.481 C 1165.126 1469.543 1162.167 1463.672 1158.359 1456.143 C 1150.742 1441.084 1139.729 1419.396 1126.445 1393.281 C 1099.877 1341.05 1064.224 1271.112 1028.492 1201.09 C 1017.868 1180.271 1007.237 1159.444 996.835 1139.073 L 996.835 1139.074 Z" style="fill: none;" transform="matrix(0.9998480081558228, 0.01745300367474556, -0.01745300367474556, 0.9998480081558228, 14.78039264678955, -11.18894100189209)"/>
  <path d="M 930.061 1008.403 C 948.954 1045.337 972.253 1090.932 996.835 1139.074 C 942.497 1032.84 894.437 939.023 886.401 923.336 C 890.872 932.01 907.273 963.854 930.061 1008.403 Z" style="fill: none;" transform="matrix(0.9998480081558228, 0.01745300367474556, -0.01745300367474556, 0.9998480081558228, 14.78039264678955, -11.18894100189209)"/>
</svg>